<?xml version="1.0" encoding="UTF-8"?><svg xmlns="http://www.w3.org/2000/svg" viewBox="0 0 1019.49 1092.15"><defs><style>.cls-1{fill:#7aae29;}.cls-2{fill:#d20912;}.cls-3{fill:#29abe1;}.cls-4{fill:#fff;}</style></defs><g id="terre"><circle class="cls-3" cx="577.61" cy="403.47" r="335.18"/></g><g id="continents_blancs"><path class="cls-4" d="M482.19,111.74c-2.55,2.77-22.65,8.79-26.36,10.08-22.83,7.97-38.03,17.94-58.15,31.35,2.83,1.16,24.04,9.53,27.36,8.09s4.25-5.5,1.55-6.42-9.74-.66-14.84-1c1.96-3.92,7.18-5.96,8.53-7.42s2.74-2.58,5.09-4.65c3.04-2.5,9.45-2.9,15.28-3.1,6.42-.22,10.86,1.29,12.41,3.21.66.9,2.65,3.61,3.32,4.54,2.22,2.58,4.31,3.98,7.64,4.43,5.38,0,8.64-1.81,12.63-5.32,1.45-1.04,3.46-2.31,5.09-2.22,1.12.06,4.21,2.12,4.54,3.43s-1.05,3.55-2.9,5.67c-5.12,4.7-10.61,7.59-17.65,7.64-.99-.06-1.98-.13-3-.19.33,1.98.43,4.55.77,6.59,2.23.11,12.31.1,13.59.15,4.17-.46,4.15-1.41,7.24-4.14,2.61-1.01,12.26-2.81,12.18-4.58s-3.27-3.58-4.14-4.5c-1.9-2.29-2.44-6.05,1.4-7.61,3.84-1.55,6.2-1.7,10.26-2.07,3.2-.29,15.65,1.26,16.1,2.58s-3.27,4.46-6.02,6.56c-2.6,1.81-2.88,2.11-3.19,4.75s5.82,7.8,8.84,5.89,2.31-10.06,2.44-11.15c1.21-4.04,6.04-5.16,8.12-5.91,2.88-1.03,11.89-3.02,12.7-3.25,12.55-3.18,14.81-.85,26.36,4.43,1.28.56,14.1,5.6,16.47,7.97.28,1.45.89,4.21,1.33,8.2.54,2.8,6.94,3.99,7.83,6.42s-1.69,5.98-4.8,8.27c-3,.7-5.86.63-9.3,1.18-4.62.85-5.09,7.9-7.83,8.57s-19.05-3.21-20.16-3.47c-3.8-.92-10.19-1.92-10.78-3.69s18.33-10.66,19.49-11.96c-.3-3.77-1.32-4.33-5.02-5.61s-14.77-.3-19.79,1.62-8.34,7.09-16.54,8.79c.33,1.98,1.48,3.18,1.11,5.09s-5.46,5.52-6.35,6.28c-3.25,2.06-6.94,2.95-9.6,1.62s-1.85-5.69-5.83-6.72-25.02,10.08-36.4,16.98c.02.48.22,6.5.52,9.23.39,3.56,9.33,6.49,11.59,7.01s10.67,1.59,11.74,2.66c.21,1.79-.19,9.26.81,12.26,2.07,3.84,3.41,3.71,5.98,2.88,1.5-1.92,3.36-4.85,4.36-7.24,3.62-7.04,13.14-8.93,17.13-11.89,3.99-2.95,2.62-10.31,2.66-13.59.23-5.81,1.48-8.49,4.8-10.41,3.32-1.92,5.72-3.09,11.37-1.92,1.19.22,16.68,2.55,17.8,4.43s.7,11.26.66,12.55c6.72-.15,8.27-1.77,11.3-3.18s3.99-2.44,5.91-2.73,3.8.13,3.91,1.11c.24,1.88,1.31,10.49,1.55,12.41.15,1.24,1.21,4.23,5.44,7.22,1.49.93,4.66,1.62,6,4.88,1.34,3.26,1.32,6.24,0,8s-8.23,5.82-9.74,7.07-.62,1.66,1.18,2.95,6.7,3,7.84,3.56c2.72,1.41,3.79,1.6,4.49,3.52s.81,4.65-1.62,6.42-23.48-3.25-23.19-6.65,3.96-8.97,2.95-10.34-9.81,2.06-11.08,2.44c-3.44.83-7.16,1.7-9.16.74s-1.26-3.62-4.06-5.09-7.1-.52-8.57,1.33c-2.81,3.54,3.25,5.39,9.3,6.94,2.02.52-3.31,4.63-5.32,6.65-2.42-.07-2.18-.64-4.95-1.26-3.4-.45-4.86.33-7.9,1.99-2.93,2.54-5.73,4.88-7.63,8.27-1.79,2.78-3.26,3.79-6.13,5.38-.89.51-6.21,3.49-7.97,4.46-6.62,3.78-18.8,14.73-19.48,15.31-3.83,3.4-5.26,5.93-6.68,10.85-3.83,10.42-16.15,16.08-25.21,21.59-3.1,1.94-5.11,3.27-6.1,6.85-.22,2.92.4,8.29.41,9.1.03,1.95.32,3.95-.41,7.9-.73,3.94-13.97-3.29-15.97-6.29-.39-2.32-.41-5.62-.68-7.96-38.68-5.69-54.21,3.24-64.09,26.81-4.71-.54-8.04-4.72-11.96-7.2-11.5-7.03-40.85-20.54-41.98-21.04-2.68-1.54-1.52-7.27-1.77-8.42-.66-.33-3.87-1.56-4.55-1.9,0,1.98-.11,5.39-.11,7.43-10.56-3.08-9.96-2.95-14.4-4.87-.33-2.31,0-5.65-1.22-7.31s-10.19-4.43-11.19-6.98-.19-3.84-.44-7.09c-.64-.12-4.76-1.77-5.09-3.32-1.26-5.86,2.07-29.22,5.76-40.65,5.97-17.56,18.87-38.8,35-53.83,17.33-16.15,40.1-27.03,45.85-32.01,5.76-4.98,13.18-15.84,26.14-24.15,12.96-8.31,35.66-19.6,47.07-22.48,11.41-2.88,50.62-10.63,48.07-7.86Z"/><path class="cls-4" d="M757.32,148.4c6.7,2.05,12.69,5.26,19.01,8.29.92.44,1.85.88,2.8,1.33,11,5.37,20.49,12.15,29.89,19.98.64.51,10.28,9.45,14,14,.73.88,1.46,1.76,2.21,2.66,10.9,13.64,19.46,28.95,28.25,44,3.83,6.57,18.32,30.61,20.36,34.9s13.18,29.51,14.51,32.45,11.36,25.64,13.29,40.65c2.78,21.61.42,43.17.44,45.97.09,11.52,1.09,27.5-.33,42.86-1.95,21.06-5.54,38.95-5.65,39.65-3.28,20.83-6.89,39.33-15.34,58.7-1.8,4.18-3.37,9.81-4.82,14.12-3.17,9.24-10.54,22.84-18.16,32.62-6.83,8.77-14.05,15.01-14.51,15.51-7.6,8.06-8.16,8.01-11.37,9.23-6.31-.66-10.74-3.18-11.74-4.69s-1.11-4.47-1.26-7.64c-.19-2.77.11-5.6-.15-7.64-.06-.48-.81-.75-.89-1.26-.11-.7.13-2.07-.11-2.73-1.32-3.65-4.53-6.74-8.12-10.41-4.85-5.86-3.97-12.99-4.01-20.21-.07-2.48.31-5.52.1-7.52-.1-.92-.9-1.6-.89-1.96.03-1.12-3.37-3.83-6.01-6.39-3.27-3.39-3.12-7.48-3.06-11.66.06-4.18,2.69-6.84,4.57-10.27.54-1.06,3.05-5.61,4.17-7.42.62-1,.81-2.36,1.44-3.25.24-.34.78-.07,1-.41-.07-.99,0-1.99-.22-2.88-.73-2.93-3.35-5.24-4.97-8.04-.66-1.13-9.68-17.48-13.52-23.09-2.8-3.8-2.47-9.82-2.47-14.33,0-.39.53-2.81,1-4.84.38-1.64.68-2.76.92-4.43.32-2.22-.03-5.14.07-7.05.05-.87-2.95.11-3.29-1.22-1.18,0-7.65-.17-8.57-.11-3.58.04-7.94-.56-15.25-7.16-1.47-1.02-1.72-1.98-4.36-2.77-.83-.25-3.32-.11-4.1-.04-.9.09-1.71.91-2.4.92-.88.02-1.39.93-1.7,1-.74.16-1.65.73-2.29,1.11-.37.22-.26,1.5-.63,1.74-.41.26-1.05-.15-1.44.18-.39.3-.4.83-.7.96-.44.19-.32.84-.59.92-.75.22-1.06.14-2.44.15-.34,0-.74.84-1.22.85-.96.03-9.93.01-11.93.07-2.14.07-5.08-.07-7.75.04-.23,0-.47.84-.7.85-.89.04-1.82.1-2.81.19-.32.03-.44.83-.78.85-2.78.19-7.49.02-9.08,0-2.51-.04-3.65,0-8.01-3.51-2.39-2.25-4.39-4.58-6.5-7.09-2.45-2.89-5.07-5.6-7.64-8.38-1.82-1.98-3.58-4.19-5.39-6.17-.65-.71-6.81-6.9-7.83-10.26-.21-.69-.98-.88-1-1.7-.15-7.13.12-13.7.1-14.28-.05-7.65.38-8.32,1.01-9.39.82-.64,3.67-2.61,4.53-3.98s1.55-3.43,1.38-4.21c-.14-.63-1.73-.02-2.33-1.11-2.44-2.69-2.39-2.67-4.95-4.98-.59-1.17-1.16-1.95-1.48-2.98s-.51-2.04-.51-3.01c0-.22.35-1.06.36-1.26.02-.49.06-.92.12-1.25.29-1.64,9.78-8.34,14.84-11,2.28-1.2,5.75-4.29,9.45-6.98,4.51-3.28,9.21-6.22,10.49-7.64.82-.91.11-13.48.22-14.95s1.77-2.55,2.18-3.54c9.76-7.42,19.47-8.79,31.41-8.68,2.82.13,6.07.26,8.53-.51,1.48-.46,2.21-1.61,3.69-2.25,1.21-.53,3.21-.67,4.28-1.37,2.14-1.44,7.83-1.48,13.03-1.77,1.09-.06,9.81-.04,13.62-.22,1.99-.09,3.94-.75,5.76-.78,1.06,0,3.05-.78,5.24,0,.51.18.26.81,1.29,1.11.35,3.61.21,9.08.33,12.7.1.73.92,3.73,1.96,3.84,2.13.23,2.73,1.03,3.21,1.18,1.55.48,10.88,2.24,12.75,2.64,6.08,1.37,16.3,6.58,17.12,5.15s1.13-2.45,1.4-3.4c1.63-4.37,3.88-4.98,5.32-5.24s3.97.15,6.05-.18c1.2-.19.57-.75,1.55-.81.7-.07,5.33.03,6.05-.04,1.18.07,2.49,1.3,6.61,4.55,1.37.9,2.13,2.24,3.51,3.13.65.41,2.22,1.33,3.1,1.29.97.53.53.75,1.4.96,1.13.27,2.99-.02,3.8.15.87.18.86.82,2.36.81.92,0,6.57.17,8.71,0,1.16-.09,1.95-.81,2.47-.81,2.42-.01,5.3-.05,7.72-.07.05-1.47-.07-2.78-.25-3.99-.22-1.44-.54-2.74-.78-3.98-.47-2.36-1.7-2.55-2.1-3.91s-1.19-4.32-2.03-6.83c-.66-1.98-1.76-2.9-2.92-3.29-1.66-.55-4.55-.05-7.31-.18-1.45,0-2.51-.65-3.69-.81-8.72-1.2-10.93-5.7-11.48-6.61-.63-1.03-1.24-3.01-1.7-5.46-.26-1.4-.74-.44-.92-3.18-.12-1.84-.92-.92-.89-3.99-.33-.52-.37-.92-.96-.92-.5,0-2.35.07-2.81.07-.58,0-.63.89-1.11.96s-.36.75-.92,1.03c-.37.19-.62.78-1.07,1.07-.35.99.14,2.76-.33,3.47-.23.34-.66.1-.78.55-.28,1.1.17,3.04-.11,4.14-.1.4-.73.23-.81.66-.4,1.56-.25,1.63-.96,2.14-.24.17-.47,1.67-.78,1.88-.33.23-.9.84-1.29,1.14-.2.15,0,.52-.22.7-.55.15-1.2.27-1.74.07-.44-.16.03-.53-.37-.74-.45-.23-1.61-.72-2.03-1-.73-.48-1.05-1.6-1.66-2.18-1.86-1.75-3.6-3.31-5.35-5.65-.37-.64-.45-1.61-.96-2.22-.63-.75-1.68-1.18-1.85-2.4-.27-2.03.1-4.94-.11-6.46-1.17-5.63-4.02-5.61-8.05-9.53-.46-.52-5.06-4.29-5.94-5.39-.64-.8-.23-1.26-1.18-1.33-3.58-.26-7.4-.08-10.89-.15.21,1.64-.18,3.1.04,4.95.13,1.12.85,1.73,1.55,2.58.15.18.28.83.55,1.22.38.53,1.19,1.03,1.33,1.14,1.63,1.39,8.25,5.3,13.18,7.68.38.21,1.2,1.1,1.59,1.29.49.25,1.5.16,1.7.48.24.38-.29.9.22,1.44.2.21.66.03.92.3-.05.43.21,1.05-.04,1.44s-.83.3-.92.55c-.19.54.15,1-.07,1.66-.09.27-.79,0-.89.37-.11.73-.48.76-.59,1.51-.41,2.4.34,5.38-.46,6.52-.88,1.25-1.97,2.01-3.23,2.86-.53.35-1.97.25-2.44.74-1.55.59-6.28.59-9.27.3-.28-.03.14-.57-.15-.78-.37-.26-1.44-.21-1.77-.26-.78-.42-.79-1.66-1.18-1.74-.81-.17-.4-.45-.92-.85-.22-.17-.65.04-1.07-.48-.31-2.75-.37-4.1.41-4.62s10.08.29,10.71-1.07-6.69-6.17-7.46-6.65c-1.57-.96-4.26-2.58-5.83-3.54-2.1-1.3-5.77-2.97-7.97-5.5-1.46-1.68-1.86-3.45-2.92-4.28-.58-.46-2.63-.14-2.81-.15-1.01-.04-4.83,5.08-8.2,4.73-3.11-.04-9.56.06-10.56.72-.51.34-2.37,3.37-5.09,6.98-2.58,3.41-6.03,7.41-6.53,8.14-1.56,2.28-6.53,9.34-8.53,10.34-3.7.27-19.16.11-20.21.13-6.32.04-6.56-.7-12.29-3.43-1.41-1.45-2.13-3.37-1.99-5.54.27-4.46-.96-9.24-1-10.02-.06-4.16,1.03-7.92,3.44-10.59s18.6-2.42,27.08-2.49c.64,0,.19.96.78.94.98-.03,2.42.01,3.21-.06.5-.04.31-.82.72-.89,1.73-.28.81-2.25.72-2.94-.17-1.27-1.98-1.97-4.21-3.93-1.94-2.19-1.58-5.02-1.55-6.59,0-.47,1.01-.31,1-.94-.11-4.1.5-7.97,3.49-8.14,2.6-.14,7.46.1,11.85-1.27s9.07-10.1,10.19-11.69,6.97-6.52,12.02-6.7c1.59.01,13.96.11,17.83,1-.33-3.63.44-8.64-1.22-11.52-1.55.5-10.08,2.44-13.62,2.1-1.4-1.87-1.77-3.93-2.88-5.98-2.38-3.51-4.77-4.32-8.42-6.31-1-1-1.49-2.47-1.99-5.09.75-5.04,4.27-6.48,8.2-9.53,3.65-2.2,8.86-3.43,11.63-4.98s3.61-3.84,1.77-7.75c-1.8-3.84-32.34-19.05-31.23-24.59Z"/><path class="cls-4" d="M476.43,398.69c11.76,2.63,11.7,2.68,14.39,5.65.49.82,1.83,4.15,5.33,4.37,3.52.21,8.65,1.81,14.6-1.28.57-.65,1.17-2.34,5.76-3.3,4.58-.96,20.57,20.49,20.57,22.49,1.97-.07,16.67-1.41,20.25.64,5.18,5.78,8.42,10.34,9.06,15.99-.01,2.69.43,7.46,1.39,10.44.96,2.98,12.09,7.49,25.05,7.99,8.45.49,21.78.36,25.69,3.3,1.31,1.88,3.2,7.14,7.89,10.13,4.69,2.98,9.17,2.77,10.55,4.05.56.52,1.38,3.5.53,7.03-1.24,5.18-5.44,10.25-7.67,12.79-5.79,7.01-8.8,12.25-9.27,21.32-1.3,24.1-1.86,24.18-9.06,30.7-6.4,4.58-10.3,4.09-17.91,4.05-3.91.11-8.58,2.16-10.44,4.8s-1,10.14.32,15.03c1.07,3.09,1.95,6.31.85,10.13-2.65,3.97-5.05,7.09-8.21,10.66-1.75,2.14-5.01,5.76-6.61,8.1s-4.88,6.04-6.93,9.81c-1.62,2.66-2.78,5.29-6.08,7.78-5.49,4.16-12.05,6.03-12.58,6.29-3.22,1.03-10.51,3.75-13.86,3.62-9.14-18.97-17.26-38.04-23.98-57.98-1.5-4.45-32.63-93.05-45.19-118.52-.68-1.22-29.8-40.95-30.8-42.95,1.02.11,8,.41,9.06.52,1.36.13,9.4,2.83,13-.09,1.61-1.8,6.63-6.52,8.1-8.42,5.69-7.31,7.37-6.71,16.2-5.12Z"/><path class="cls-4" d="M743.19,200.9c1.98,2.97.93,1.96,1.66,5.37,1.94,7.41,7.59,15.95,8.92,16.95s5.91,4.24,7.2,4.93c.55.22.38,1.11.22,1.66-.1.35-.79.47-.89.78-1.21,3.81-3.54,5.32-4.76,5.81s-1.61.54-4.32.66c-.97.05-6.25.03-7.81.11-1.07.04-1.75.66-2.55.72-3.38.27-5.32.39-6.15-.33s-1.95-1.5-2.22-3.38c.01-.7.07-4.87.06-5.59.17-1.5,1.13-1.24,1.72-1.77,1.2-1.08,1.58-1.25.83-1.88-.21-.18-.88,0-1.61,0s-1.49-.15-2.1.17c-1.09.56-1.45,1.61-2.38,2.49-.82.78-2.24,1.39-3.05,1.99-2.76,1.89-4.95,3.08-7.52,3.7-.61.15-.84.64-1.51.73-1.01.13-2.11-.06-3.32-.06-.2-.13.06-.8-.17-.94-.45-.28-1.29.05-1.88-.11s-.53-.78-.94-1.05c-.35-2.61-.53-4.49-.14-6.44.24-1.17,1.11-1.79,1.85-3.2,2.63-3.2,4.82-5.34,7.51-6.85.98-.55,1.47-.83,2.62-1.24,1.25-.44,4.13.15,5.7-.17.16-.92.16-7.05.32-7.88.1-.31.78-.46.9-.7.41-.8.49-1.53,1-1.99.59-.53,1.64-.77,2.6-1.55.65-.25.34-.85,1-.89.99-.06,2.62.06,3.71-.17.53-.11.55-.66,1.05-.66,1.16-.02,2.39-.24,3.49,0,.37.08.56.75.94.78Z"/><path class="cls-4" d="M391.88,369.66s2.19-2.3,4.06-3.29,12.83-7.46,13.38-7.68,3.18-.77,3.73,0,1.54,3.62,1.43,5.7-3.18,9.32-3.62,9.98-1.97,2.3-1.75,2.85,1.97.99,3.73,1.21,7.79,1.54,9.76,2.74,4.28,2.19,4.39,4.17.33,16.78.33,16.78l-22.48-18.86-12.94-13.6Z"/><path class="cls-4" d="M543.19,680.98s3.99,2.29,4.73,3.25,2.73,1.18,2.81,5.24-.62,4.41-1.7,4.95c-.89.44-3.1.74-4.36,1.03-1.1.26-8.79.81-13.29-.3s-17.43-12.92-17.43-12.92l29.24-1.26Z"/><path class="cls-4" d="M527.68,262.03c-.19-1.43.62-3.01,1.86-3.71s2.83-1.59,3.89-.88,2.83,1.77,3.01,2.65.35,2.92-.88,3.8-2.48,1.33-3.8,1.33-3.88-1.76-4.07-3.18Z"/><path class="cls-4" d="M540.59,260.97c-.47-.75.09-2.03.09-2.56s1.86-1.86,2.74-2.03,2.92.09,4.16-.62,3.89-2.83,4.77-3.01,6.54-.62,7.16-.18.97,1.86.71,2.83-4.33,5.48-5.57,6.45-3.01,2.21-3.71,2.48-3.36.88-4.42.8-5.48-3.45-5.92-4.16Z"/></g><g id="contients_rouges"><path class="cls-2" d="M745.79,200.96c1.98,2.97.93,1.96,1.66,5.37,1.94,7.41,7.59,15.95,8.92,16.95s5.91,4.24,7.2,4.93c.55.22.38,1.11.22,1.66-.1.35-.79.47-.89.78-1.21,3.81-3.54,5.32-4.76,5.81s-1.61.54-4.32.66c-.97.05-6.25.03-7.81.11-1.07.04-1.75.66-2.55.72-3.38.27-5.32.39-6.15-.33s-1.95-1.5-2.22-3.38c.01-.7.07-4.87.06-5.59.17-1.5,1.13-1.24,1.72-1.77,1.2-1.08,1.58-1.25.83-1.88-.21-.18-.88,0-1.61,0s-1.49-.15-2.1.17c-1.09.56-1.45,1.61-2.38,2.49-.82.78-2.24,1.39-3.05,1.99-2.76,1.89-4.95,3.08-7.52,3.7-.61.15-.84.64-1.51.73-1.01.13-2.11-.06-3.32-.06-.2-.13.06-.8-.17-.94-.45-.28-1.29.05-1.88-.11s-.53-.78-.94-1.05c-.35-2.61-.53-4.49-.14-6.44.24-1.17,1.11-1.79,1.85-3.2,2.63-3.2,4.82-5.34,7.51-6.85.98-.55,1.47-.83,2.62-1.24,1.25-.44,4.13.15,5.7-.17.16-.92.16-7.05.32-7.88.1-.31.78-.46.9-.7.41-.8.49-1.53,1-1.99.59-.53,1.64-.77,2.6-1.55.65-.25.34-.85,1-.89.99-.06,2.62.06,3.71-.17.53-.11.55-.66,1.05-.66,1.16-.02,2.39-.24,3.49,0,.37.08.56.75.94.78Z"/><path class="cls-2" d="M486.15,111.74c-2.55,2.77-22.65,8.79-26.36,10.08-22.83,7.97-38.03,17.94-58.15,31.35,2.83,1.16,24.04,9.53,27.36,8.09s4.25-5.5,1.55-6.42-9.74-.66-14.84-1c1.96-3.92,7.18-5.96,8.53-7.42s2.74-2.58,5.09-4.65c3.04-2.5,9.45-2.9,15.28-3.1,6.42-.22,10.86,1.29,12.41,3.21.66.9,2.65,3.61,3.32,4.54,2.22,2.58,4.31,3.98,7.64,4.43,5.38,0,8.64-1.81,12.63-5.32,1.45-1.04,3.46-2.31,5.09-2.22,1.12.06,4.21,2.12,4.54,3.43s-1.05,3.55-2.9,5.67c-5.12,4.7-10.61,7.59-17.65,7.64-.99-.06-1.98-.13-3-.19.33,1.98.43,4.55.77,6.59,2.23.11,12.31.1,13.59.15,4.17-.46,4.15-1.41,7.24-4.14,2.61-1.01,12.26-2.81,12.18-4.58s-3.27-3.58-4.14-4.5c-1.9-2.29-2.44-6.05,1.4-7.61s6.2-1.7,10.26-2.07c3.2-.29,15.65,1.26,16.1,2.58s-3.27,4.46-6.02,6.56c-2.6,1.81-2.88,2.11-3.19,4.75s5.82,7.8,8.84,5.89,2.31-10.06,2.44-11.15c1.21-4.04,6.04-5.16,8.12-5.91,2.88-1.03,11.89-3.02,12.7-3.25,12.55-3.18,14.81-.85,26.36,4.43,1.28.56,14.1,5.6,16.47,7.97.28,1.45.89,4.21,1.33,8.2.54,2.8,6.94,3.99,7.83,6.42s-1.69,5.98-4.8,8.27c-3,.7-5.86.63-9.3,1.18-4.62.85-5.09,7.9-7.83,8.57s-19.05-3.21-20.16-3.47c-3.8-.92-10.19-1.92-10.78-3.69s18.33-10.66,19.49-11.96c-.3-3.77-1.32-4.33-5.02-5.61s-14.77-.3-19.79,1.62c-5.02,1.92-8.34,7.09-16.54,8.79.33,1.98,1.48,3.18,1.11,5.09s-5.46,5.52-6.35,6.28c-3.25,2.06-6.94,2.95-9.6,1.62s-1.85-5.69-5.83-6.72-25.02,10.08-36.4,16.98c.02.48.22,6.5.52,9.23.39,3.56,9.33,6.49,11.59,7.01s10.67,1.59,11.74,2.66c.21,1.79-.19,9.26.81,12.26,2.07,3.84,3.41,3.71,5.98,2.88,1.5-1.92,3.36-4.85,4.36-7.24,3.62-7.04,13.14-8.93,17.13-11.89s2.62-10.31,2.66-13.59c.23-5.81,1.48-8.49,4.8-10.41s5.72-3.09,11.37-1.92c1.19.22,16.68,2.55,17.8,4.43s.7,11.26.66,12.55c6.72-.15,8.27-1.77,11.3-3.18s3.99-2.44,5.91-2.73,3.8.13,3.91,1.11c.24,1.88,1.31,10.49,1.55,12.41.15,1.24,1.21,4.23,5.44,7.22,1.49.93,4.66,1.62,6,4.88s1.32,6.24,0,8c-1.32,1.76-8.23,5.82-9.74,7.07s-.62,1.66,1.18,2.95,6.7,3,7.84,3.56c2.72,1.41,3.79,1.6,4.49,3.52s.81,4.65-1.62,6.42-23.48-3.25-23.19-6.65,3.96-8.97,2.95-10.34-9.81,2.06-11.08,2.44c-3.44.83-7.16,1.7-9.16.74s-1.26-3.62-4.06-5.09-7.1-.52-8.57,1.33c-2.81,3.54,3.25,5.39,9.3,6.94,2.02.52-3.31,4.63-5.32,6.65-2.42-.07-2.18-.64-4.95-1.26-3.4-.45-4.86.33-7.9,1.99-2.93,2.54-5.73,4.88-7.63,8.27-1.79,2.78-3.26,3.79-6.13,5.38-.89.51-6.21,3.49-7.97,4.46-6.62,3.78-18.8,14.73-19.48,15.31-3.83,3.4-5.26,5.93-6.68,10.85-3.83,10.42-16.15,16.08-25.21,21.59-3.1,1.94-5.11,3.27-6.1,6.85-.22,2.92.4,8.29.41,9.1.03,1.95.32,3.95-.41,7.9-.73,3.94-13.97-3.29-15.97-6.29-.39-2.32-.41-5.62-.68-7.96-38.68-5.69-54.21,3.24-64.09,26.81-4.71-.54-8.04-4.72-11.96-7.2-11.5-7.03-40.85-20.54-41.98-21.04-2.68-1.54-1.52-7.27-1.77-8.42-.66-.33-3.87-1.56-4.55-1.9,0,1.98-.11,5.39-.11,7.43-10.56-3.08-9.96-2.95-14.4-4.87-.33-2.31,0-5.65-1.22-7.31s-10.19-4.43-11.19-6.98-.19-3.84-.44-7.09c-.64-.12-4.76-1.77-5.09-3.32-1.26-5.86,2.07-29.22,5.76-40.65,5.97-17.56,18.87-38.8,35-53.83,17.33-16.15,40.1-27.03,45.85-32.01,5.76-4.98,13.18-15.84,26.14-24.15,12.96-8.31,35.66-19.6,47.07-22.48,11.41-2.88,50.62-10.63,48.07-7.86Z"/><path class="cls-2" d="M761.28,148.4c6.7,2.05,12.69,5.26,19.01,8.29.92.44,1.85.88,2.8,1.33,11,5.37,20.49,12.15,29.89,19.98.64.51,10.28,9.45,14,14,.73.88,1.46,1.76,2.21,2.66,10.9,13.64,19.46,28.95,28.25,44,3.83,6.57,18.32,30.61,20.36,34.9s13.18,29.51,14.51,32.45,11.36,25.64,13.29,40.65c2.78,21.61.42,43.17.44,45.97.09,11.52,1.09,27.5-.33,42.86-1.95,21.06-5.54,38.95-5.65,39.65-3.28,20.83-6.89,39.33-15.34,58.7-1.8,4.18-3.37,9.81-4.82,14.12-3.17,9.24-10.54,22.84-18.16,32.62-6.83,8.77-14.05,15.01-14.51,15.51-7.6,8.06-8.16,8.01-11.37,9.23-6.31-.66-10.74-3.18-11.74-4.69s-1.11-4.47-1.26-7.64c-.19-2.77.11-5.6-.15-7.64-.06-.48-.81-.75-.89-1.26-.11-.7.13-2.07-.11-2.73-1.32-3.65-4.53-6.74-8.12-10.41-4.85-5.86-3.97-12.99-4.01-20.21-.07-2.48.31-5.52.1-7.52-.1-.92-.9-1.6-.89-1.96.03-1.12-3.37-3.83-6.01-6.39-3.27-3.39-3.12-7.48-3.06-11.66.06-4.18,2.69-6.84,4.57-10.27.54-1.06,3.05-5.61,4.17-7.42.62-1,.81-2.36,1.44-3.25.24-.34.78-.07,1-.41-.07-.99,0-1.99-.22-2.88-.73-2.93-3.35-5.24-4.97-8.04-.66-1.13-9.68-17.48-13.52-23.09-2.8-3.8-2.47-9.82-2.47-14.33,0-.39.53-2.81,1-4.84.38-1.64.68-2.76.92-4.43.32-2.22-.03-5.14.07-7.05.05-.87-2.95.11-3.29-1.22-1.18,0-7.65-.17-8.57-.11-3.58.04-7.94-.56-15.25-7.16-1.47-1.02-1.72-1.98-4.36-2.77-.83-.25-3.32-.11-4.1-.04-.9.09-1.71.91-2.4.92-.88.02-1.39.93-1.7,1-.74.16-1.65.73-2.29,1.11-.37.22-.26,1.5-.63,1.74-.41.26-1.05-.15-1.44.18-.39.3-.4.83-.7.96-.44.19-.32.84-.59.92-.75.22-1.06.14-2.44.15-.34,0-.74.84-1.22.85-.96.03-9.93.01-11.93.07-2.14.07-5.08-.07-7.75.04-.23,0-.47.84-.7.85-.89.04-1.82.1-2.81.19-.32.03-.44.83-.78.85-2.78.19-7.49.02-9.08,0-2.51-.04-3.65,0-8.01-3.51-2.39-2.25-4.39-4.58-6.5-7.09-2.45-2.89-5.07-5.6-7.64-8.38-1.82-1.98-3.58-4.19-5.39-6.17-.65-.71-6.81-6.9-7.83-10.26-.21-.69-.98-.88-1-1.7-.15-7.13.12-13.7.1-14.28-.05-7.65.38-8.32,1.01-9.39.82-.64,3.67-2.61,4.53-3.98s1.55-3.43,1.38-4.21c-.14-.63-1.73-.02-2.33-1.11-2.44-2.69-2.39-2.67-4.95-4.98-.59-1.17-1.16-1.95-1.48-2.98s-.51-2.04-.51-3.01c0-.22.35-1.06.36-1.26.02-.49.06-.92.12-1.25.29-1.64,9.78-8.34,14.84-11,2.28-1.2,5.75-4.29,9.45-6.98,4.51-3.28,9.21-6.22,10.49-7.64.82-.91.11-13.48.22-14.95s1.77-2.55,2.18-3.54c9.76-7.42,19.47-8.79,31.41-8.68,2.82.13,6.07.26,8.53-.51,1.48-.46,2.21-1.61,3.69-2.25,1.21-.53,3.21-.67,4.28-1.37,2.14-1.44,7.83-1.48,13.03-1.77,1.09-.06,9.81-.04,13.62-.22,1.99-.09,3.94-.75,5.76-.78,1.06,0,3.05-.78,5.24,0,.51.18.26.81,1.29,1.11.35,3.61.21,9.08.33,12.7.1.73.92,3.73,1.96,3.84,2.13.23,2.73,1.03,3.21,1.18,1.55.48,10.88,2.24,12.75,2.64,6.08,1.37,16.3,6.58,17.12,5.15s1.13-2.45,1.4-3.4c1.63-4.37,3.88-4.98,5.32-5.24s3.97.15,6.05-.18c1.2-.19.57-.75,1.55-.81.7-.07,5.33.03,6.05-.04,1.18.07,2.49,1.3,6.61,4.55,1.37.9,2.13,2.24,3.51,3.13.65.41,2.22,1.33,3.1,1.29.97.53.53.75,1.4.96,1.13.27,2.99-.02,3.8.15.87.18.86.82,2.36.81.92,0,6.57.17,8.71,0,1.16-.09,1.95-.81,2.47-.81,2.42-.01,5.3-.05,7.72-.07.05-1.47-.07-2.78-.25-3.99-.22-1.44-.54-2.74-.78-3.98-.47-2.36-1.7-2.55-2.1-3.91s-1.19-4.32-2.03-6.83c-.66-1.98-1.76-2.9-2.92-3.29-1.66-.55-4.55-.05-7.31-.18-1.45,0-2.51-.65-3.69-.81-8.72-1.2-10.93-5.7-11.48-6.61-.63-1.03-1.24-3.01-1.7-5.46-.26-1.4-.74-.44-.92-3.18-.12-1.84-.92-.92-.89-3.99-.33-.52-.37-.92-.96-.92-.5,0-2.35.07-2.81.07-.58,0-.63.89-1.11.96s-.36.75-.92,1.03c-.37.19-.62.78-1.07,1.07-.35.99.14,2.76-.33,3.47-.23.34-.66.1-.78.55-.28,1.1.17,3.04-.11,4.14-.1.4-.73.23-.81.66-.4,1.56-.25,1.63-.96,2.14-.24.17-.47,1.67-.78,1.88-.33.23-.9.84-1.29,1.14-.2.15,0,.52-.22.7-.55.15-1.2.27-1.74.07-.44-.16.03-.53-.37-.74-.45-.23-1.61-.72-2.03-1-.73-.48-1.05-1.6-1.66-2.18-1.86-1.75-3.6-3.31-5.35-5.65-.37-.64-.45-1.61-.96-2.22-.63-.75-1.68-1.18-1.85-2.4-.27-2.03.1-4.94-.11-6.46-1.17-5.63-4.02-5.61-8.05-9.53-.46-.52-5.06-4.29-5.94-5.39-.64-.8-.23-1.26-1.18-1.33-3.58-.26-7.4-.08-10.89-.15.21,1.64-.18,3.1.04,4.95.13,1.12.85,1.73,1.55,2.58.15.18.28.83.55,1.22.38.53,1.19,1.03,1.33,1.14,1.63,1.39,8.25,5.3,13.18,7.68.38.21,1.2,1.1,1.59,1.29.49.25,1.5.16,1.7.48.24.38-.29.9.22,1.44.2.21.66.03.92.3-.05.43.21,1.05-.04,1.44s-.83.3-.92.55c-.19.54.15,1-.07,1.66-.09.27-.79,0-.89.37-.11.73-.48.76-.59,1.51-.41,2.4.34,5.38-.46,6.52-.88,1.25-1.97,2.01-3.23,2.86-.53.35-1.97.25-2.44.74-1.55.59-6.28.59-9.27.3-.28-.03.14-.57-.15-.78-.37-.26-1.44-.21-1.77-.26-.78-.42-.79-1.66-1.18-1.74-.81-.17-.4-.45-.92-.85-.22-.17-.65.04-1.07-.48-.31-2.75-.37-4.1.41-4.62s10.08.29,10.71-1.07-6.69-6.17-7.46-6.65c-1.57-.96-4.26-2.58-5.83-3.54-2.1-1.3-5.77-2.97-7.97-5.5-1.46-1.68-1.86-3.45-2.92-4.28-.58-.46-2.63-.14-2.81-.15-1.01-.04-4.83,5.08-8.2,4.73-3.11-.04-9.56.06-10.56.72-.51.34-2.37,3.37-5.09,6.98-2.58,3.41-6.03,7.41-6.53,8.14-1.56,2.28-6.53,9.34-8.53,10.34-3.7.27-19.16.11-20.21.13-6.32.04-6.56-.7-12.29-3.43-1.41-1.45-2.13-3.37-1.99-5.54.27-4.46-.96-9.24-1-10.02-.06-4.16,1.03-7.92,3.44-10.59s18.6-2.42,27.08-2.49c.64,0,.19.96.78.94.98-.03,2.42.01,3.21-.06.5-.04.31-.82.72-.89,1.73-.28.81-2.25.72-2.94-.17-1.27-1.98-1.97-4.21-3.93-1.94-2.19-1.58-5.02-1.55-6.59,0-.47,1.01-.31,1-.94-.11-4.1.5-7.97,3.49-8.14,2.6-.14,7.46.1,11.85-1.27s9.07-10.1,10.19-11.69,6.97-6.52,12.02-6.7c1.59.01,13.96.11,17.83,1-.33-3.63.44-8.64-1.22-11.52-1.55.5-10.08,2.44-13.62,2.1-1.4-1.87-1.77-3.93-2.88-5.98-2.38-3.51-4.77-4.32-8.42-6.31-1-1-1.49-2.47-1.99-5.09.75-5.04,4.27-6.48,8.2-9.53,3.65-2.2,8.86-3.43,11.63-4.98s3.61-3.84,1.77-7.75c-1.8-3.84-32.34-19.05-31.23-24.59Z"/><path class="cls-2" d="M480.39,398.69c11.76,2.63,11.7,2.68,14.39,5.65.49.82,1.83,4.15,5.33,4.37,3.52.21,8.65,1.81,14.6-1.28.57-.65,1.17-2.34,5.76-3.3s20.57,20.49,20.57,22.49c1.97-.07,16.67-1.41,20.25.64,5.18,5.78,8.42,10.34,9.06,15.99-.01,2.69.43,7.46,1.39,10.44.96,2.98,12.09,7.49,25.05,7.99,8.45.49,21.78.36,25.69,3.3,1.31,1.88,3.2,7.14,7.89,10.13,4.69,2.98,9.17,2.77,10.55,4.05.56.52,1.38,3.5.53,7.03-1.24,5.18-5.44,10.25-7.67,12.79-5.79,7.01-8.8,12.25-9.27,21.32-1.3,24.1-1.86,24.18-9.06,30.7-6.4,4.58-10.3,4.09-17.91,4.05-3.91.11-8.58,2.16-10.44,4.8s-1,10.14.32,15.03c1.07,3.09,1.95,6.31.85,10.13-2.65,3.97-5.05,7.09-8.21,10.66-1.75,2.14-5.01,5.76-6.61,8.1s-4.88,6.04-6.93,9.81c-1.62,2.66-2.78,5.29-6.08,7.78-5.49,4.16-12.05,6.03-12.58,6.29-3.22,1.03-10.51,3.75-13.86,3.62-9.14-18.97-17.26-38.04-23.98-57.98-1.5-4.45-32.63-93.05-45.19-118.52-.68-1.22-29.8-40.95-30.8-42.95,1.02.11,8,.41,9.06.52,1.36.13,9.4,2.83,13-.09,1.61-1.8,6.63-6.52,8.1-8.42,5.69-7.31,7.37-6.71,16.2-5.12Z"/><path class="cls-2" d="M392.86,370.87s2.19-2.3,4.06-3.29,12.83-7.46,13.38-7.68,3.18-.77,3.73,0,1.54,3.62,1.43,5.7-3.18,9.32-3.62,9.98-1.97,2.3-1.75,2.85,1.97.99,3.73,1.21,7.79,1.54,9.76,2.74,4.28,2.19,4.39,4.17.33,16.78.33,16.78l-22.48-18.86-12.94-13.6Z"/><path class="cls-2" d="M545.63,680.98s3.99,2.29,4.73,3.25,2.73,1.18,2.81,5.24-.62,4.41-1.7,4.95c-.89.44-3.1.74-4.36,1.03-1.1.26-8.79.81-13.29-.3s-17.43-12.92-17.43-12.92l29.24-1.26Z"/><path class="cls-2" d="M530.42,261.94c-.15-1.16.62-3.01,1.86-3.71s2.83-1.59,3.89-.88,2.83,1.77,3.01,2.65.35,2.92-.88,3.8-2.48,1.33-3.8,1.33-3.92-2.02-4.07-3.18Z"/><path class="cls-2" d="M543.33,260.88c-.47-.75.09-2.03.09-2.56s1.86-1.86,2.74-2.03,2.92.09,4.16-.62,3.89-2.83,4.77-3.01,6.54-.62,7.16-.18.97,1.86.71,2.83-4.33,5.48-5.57,6.45-3.01,2.21-3.71,2.48-3.36.88-4.42.8-5.48-3.45-5.92-4.16Z"/></g><g id="feuille"><path class="cls-1" d="M274.78,310.52c-13.09-2.89-33.67-6.5-45.34-8.57-8.33-1.48-57.6-7.83-70.89-7.83s-56.86-2.07-64.39-2.95-32.93-3.25-36.03-3.25-9.45-.74-12.11.15-4.58,3.4-5.46,5.17.59,6.94,4.14,11.37,26.73,37.07,32.93,49.03c3.2,6.18,12.87,26.4,21.71,47.41,8.27,19.65,15.79,40.11,17.72,46.96,3.99,14.18,32.64,104.26,42.38,125.97s19.64,40.76,32.05,59.81c12.41,19.05,39.43,50.36,68.23,68.97s71.33,32.49,85.95,35.59,77.08,15.36,125.82,15.36c23.92,0,48-1.24,67.49-3.1,19.49-1.86,35.3-4.65,47.26-6.65s33.72-6.51,51.78-11.06c16.45-4.15,30.22-8.47,33.97-9.89,10.21-3.87,20.21-9.25,24.62-13.22,2.26-2.04,3.23-4.52.98-8.51-1.65-2.94-3.84-3.84-6.5-3.69s-10.78,4.14-12.41,4.87-26.58,11.96-67.19,17.72c-11.17,1.58-34.56,1.92-44.01,1.92s-31.9-1.77-41.2-2.81-53.61-11.67-68.38-18.16c-14.77-6.5-40.76-19.35-64.68-43.71-12.4-12.63-33.38-38.65-47.26-60.4-12.89-20.2-22.64-39.97-23.92-42.53-1.74-3.49-1.48-6.79.44-7.97,1.19-.73,4.14-.37,6.35,2.07s31.46,41.06,34.11,44.6,10.46,13,17.72,20.53c16.1,16.69,46.22,37.36,61.14,45.41s36.55,16.61,53.39,20.6c16.84,3.99,32.12,5.32,41.2,4.43s16.61-2.44,19.05-7.53.44-10.85-1.11-13.73c-1.55-2.88-11.67-18.31-17.28-29.24-5.61-10.93-12.11-22.45-18.02-39.58s-2.8-11.88-16.84-50.51c-8.24-22.69-17.38-48.96-27.17-71.18-9.18-20.85-19-38.02-27.47-48.96-7.97-10.29-23.35-27.02-44.08-45.63-17.34-15.58-37.58-28.9-52.65-36.7-33.08-17.13-62.03-27.47-76.06-30.57Z"/></g><g id="Calque_9"><path class="cls-1" d="M468.3,910.91l.07.72c-3.77,17.52-11.27,29.56-22.5,36.1-11.24,6.55-25.4,7.83-42.48,3.85-17.53-4.08-30.24-12.49-38.13-25.21-7.89-12.73-9.62-28.6-5.19-47.62l11.25-48.34c4.41-18.95,12.81-32.48,25.2-40.61,12.39-8.12,27.05-10.22,43.98-6.27,17.83,4.15,30.51,11.66,38.04,22.54,7.53,10.88,9.11,25.04,4.73,42.5l-.38.62-30.66-7.14c2.43-10.44,2.29-18.18-.43-23.22-2.72-5.04-8.41-8.56-17.06-10.58-7.91-1.84-14.5-.37-19.78,4.42-5.28,4.79-9.29,13.07-12.04,24.86l-11.31,48.56c-2.76,11.86-2.68,21.14.24,27.83s8.67,11.04,17.25,13.04c7.83,1.82,13.95,1.07,18.34-2.28,4.39-3.34,7.83-10.31,10.29-20.9l30.55,7.11Z"/><path class="cls-1" d="M531.52,966.51l-32.2-2.23,11.55-166.87,32.21,2.23-11.55,166.87Z"/><path class="cls-1" d="M647.65,920.73c-.44-6.65-2.49-11.79-6.14-15.43-3.66-3.63-10-7-19.03-10.09-17.52-4.91-30.84-10.9-39.98-17.97-9.14-7.07-14.16-17.49-15.07-31.24-.9-13.68,3.29-25.14,12.58-34.39s21.58-14.37,36.86-15.38c16.2-1.07,29.53,2.66,40,11.18,10.46,8.52,16.05,20.51,16.76,35.97l-.18.7-31.41,2.07c-.57-8.63-2.93-15.06-7.08-19.28-4.15-4.22-9.82-6.09-17.01-5.61-6.19.41-10.87,2.77-14.04,7.08-3.17,4.32-4.55,9.53-4.15,15.64.37,5.66,2.63,10.19,6.77,13.6,4.14,3.41,11.09,6.98,20.85,10.71,16.48,4.29,29.13,10.25,37.96,17.88,8.83,7.63,13.7,18.36,14.61,32.19.94,14.29-3.17,25.84-12.34,34.66-9.17,8.82-21.77,13.75-37.82,14.81-15.82,1.04-29.64-2.48-41.45-10.56-11.82-8.09-18.13-21.16-18.93-39.22l.18-.7,31.52-2.08c.69,10.47,3.31,17.86,7.85,22.16s10.94,6.19,19.2,5.64c6.95-.46,12.04-2.71,15.27-6.76,3.22-4.05,4.63-9.25,4.21-15.59Z"/><path class="cls-1" d="M788.99,860.21l-49.27,13.64,12.97,46.83,59.01-16.34,6.75,24.36-90.23,24.99-44.64-161.2,90.01-24.93,6.78,24.47-58.79,16.28,11.41,41.19,49.27-13.64,6.75,24.36Z"/></g></svg>